<svg xmlns="http://www.w3.org/2000/svg" viewBox="136.94 199.16 751.99 684.07">
  <path d="M678,215.556c-3.557,1.543-5.754,4.396-55.034,71.444-7.883,10.725-19.98,27.15-26.882,36.5s-13.344,18.558-14.316,20.461c-2.106,4.124-2.299,11.847-.408,16.321.748,1.77,20.673,29.093,44.279,60.718c61.733,82.707,58.196,77.302,57.029,87.156-1.207,10.192-.575,9.265-75.28,110.344-28.048,37.95-64.276,87-80.508,109-16.231,22-43.622,59.125-60.868,82.5-17.247,23.375-34.88,47.182-39.185,52.905-8.207,10.91-9.411,14.352-6.077,17.368c1.569,1.419,12.223,1.607,102.75,1.812c115.311.262,103.132,1.272,114.345-9.488c4.011-3.849,23.974-29.88,54.141-70.597c26.282-35.475,65.05-87.751,86.15-116.169C883.12,544.438,877.509,552.532,884.027,533.079c7.31-21.818,4.193-48.374-8.005-68.198-1.636-2.658-20.388-28.131-41.671-56.607-21.284-28.476-44.162-59.199-50.842-68.274-6.679-9.075-19.498-26.4-28.486-38.5s-19.347-26.05-23.021-31c-31.693-42.706-39.061-52.309-41.225-53.726-3.761-2.465-8.798-2.945-12.777-1.218" transform="translate(1 1)" fill="#888" fill-rule="evenodd"/>
  <path d="M392.5,142.657c-5.589,2.937-9.639,7.787-33.276,39.843-12.977,17.6-27.244,36.95-31.704,43-4.459,6.05-18.438,25.098-31.064,42.328-41.232,56.27-59.48,81.118-91.456,124.539-60.804,82.565-62.419,84.93-66.196,96.959-4.262,13.575-3.266,33.756,2.306,46.708c3.5,8.136,20.809,32.424,47.368,66.466c13.301,17.05,26.822,34.6,30.046,39c7.576,10.341,65.544,88.108,74.913,100.5c33.354,44.116,38.923037,47.747932,47.582,57.109c18.205,19.681137,21.953,14.035,28.625,9.966c3.73-2.274,3.34-1.783,26.642-33.575c10.078-13.75,31.103-42.325,46.722-63.5c15.618-21.175,29.862-40.916,31.651-43.869c3.592-5.926,5.058-12.711,3.715-17.187-.481-1.603-17.974-25.207-38.874-52.454-55.606-72.493-57.156-74.753-58.201-84.885-.977-9.467.752-12.541,26.233-46.638C450.97,408.839,491.209,354.229,603.138,201.5c43.309-59.095,39.172-53.031,37.742-55.32-.668-1.071-2.447-2.674-3.952-3.564-2.48-1.464-13.925-1.612-122.082-1.576-106.676.036-119.664.207-122.346,1.617" transform="translate(.772449 58.127)" fill="#444" fill-rule="evenodd"/>
</svg>
